<svg xmlns="http://www.w3.org/2000/svg" height="139.32" width="328.92" xmlns:v="https://vecta.io/nano"><path d="M328.385 139.32V75.706H0v63.614h328.385" fill="#ed1c24"/><path d="M91.54 104.176h6.328c3.163 0 6.324-.702 6.324-3.33 0-2.549-3.333-3.328-6.324-3.328H91.54zm0 13.064h7.017c3.047 0 6.038-.987 6.038-3.449 0-2.793-2.528-3.455-6.038-3.455H91.54zM79.112 91.848h21.228c9.84 0 16.281 2.961 16.281 8.138 0 3.696-4.143 5.913-8.689 6.86v.082c5.467.819 9.779 3.407 9.779 7.641 0 3.987-3.16 8.341-15.816 8.341H79.112V91.848m56.204 18.734h9.264l-4.373-10.146h-.116zm-.688-18.734h13.401l14.9 31.062h-12.944l-2.588-5.917h-14.843l-2.818 5.917h-9.84l14.731-31.062m33.709 0h11.561l15.475 16.475h.113V91.848h9.549v31.062h-9.316l-17.717-17.587h-.116v17.587h-9.549V91.848m45.157 0h12.424v12.449h.115l12.715-12.449h11.847l-10.7 10.272 13.524 20.791h-13.289l-8.572-13.272-5.639 5.382v7.891h-12.424V91.848" fill="#fff"/><g fill="#ed1c24"><path d="M.004 60.684H6.99V4.587H.004V1.086h37.523v3.501h-6.984v56.097h6.984v3.68H.004v-3.68m294.535 2.856c4.285 0 6.62-3.372 6.62-11.03V13.49c0-7.657-2.335-10.941-6.62-10.941S288.01 5.92 288.01 13.49v39.02c0 7.569 2.241 11.03 6.529 11.03zm-25.07-53.608c6.295-6.472 14.948-9.937 25.071-9.937 20.427 0 34.377 14.679 34.377 33.005s-13.951 33.096-34.377 33.096c-8.839 0-16.681-2.735-22.613-7.661-7.197-5.924-11.668-15.678-11.668-25.435 0-8.573 3.556-17.324 9.211-23.068"/><path d="M239.83 1.086v3.501h.327c6.928 0 7.884 1.642 7.884 7.111v23.138l-24.436-33.75h-31.183v3.501h.329c1.443 0 3.892.316 4.964 1.801l2.059 2.848v44.432c0 5.47-.327 7.019-7.165 7.019h-.187v3.676h19.547v-3.676c-.141 0-.275-.003-.407-.003-6.753 0-7.339-1.531-7.339-7.017V14.74l35.851 49.624h12.243V11.698c0-5.469.951-7.111 7.787-7.111h.555V1.086H239.83M136.868 39.981l7.593-21.595 7.835 21.595zm48.455 20.703L163.629 1.086H146.37l-18.675 52.405c-1.178 3.324-2.975 5.488-5.527 6.537-.799.325-1.912.656-3.005.656h-2.768l-24.437-42.41 8.889-8.896c2.628-2.631 6.832-4.221 9.853-4.547a46.8 46.8 0 0 1 4.562-.244V1.086H86.359v3.501h2.985c1.436 0 4.328-.051 5.436 1.863.745 1.281.304 3.35-1.362 5.017L73.103 31.841V4.587h5.972V1.086H42.75v3.501h6.346v56.097H42.75v3.68h36.296v-3.68h-5.942V31.936l16.549 28.747h-6.8v3.68h54.509v-3.69h-.907c-.448 0-1.576-.096-1.807-.155-4.473-1.155-3.408-4.539-2.508-7.091l3.259-9.275h18.44l5.953 16.531h-5.475v3.68h35.169v-3.68h-4.164"/></g></svg>