<svg xmlns="http://www.w3.org/2000/svg" width="674" height="107.5" viewBox="0 0 674 107.5">
  <g id="Ikon:_ICA_Banken" data-name="Ikon: ICA Banken" transform="translate(-1106 -2470.748)">
    <path id="ica-banken-col" d="M0,105.552H25.7l0-101.9L0,3.653l0,101.9M114.614,63.63l-2.808,4.934A26.485,26.485,0,0,1,92.744,81.452,27.459,27.459,0,0,1,65.1,68.474a26.908,26.908,0,0,1-3.749-14.727A28.079,28.079,0,0,1,71.431,33.538c3.644-2.447,7.445-4.488,11.789-5.175a27.859,27.859,0,0,1,19.157,3.343l12.63-22.212c-.135-.329-.134-.243-.386-.427a40.537,40.537,0,0,0-14.315-5.784c-13.661-3.459-28.435-.5-39.6,6.542C49.953,16.1,42.08,27.236,38.31,38.265a83.584,83.584,0,0,0-1.832,9.554C34.565,64.01,38.326,76.431,47.6,88.19A48.917,48.917,0,0,0,71.01,104.653c12.291,4.411,28.709,3.7,40.086-2.19,10.769-4.744,20.308-15.147,25.66-25.489l9.983-18.008,2.914-5.162,12.212,21.777-8.982.081-10,18.629,29.388-.017,6.462,11.283h29.644L149.51,0,114.615,63.63M265.19,93.711H247.707V57.289H265.19c9.471,0,20.25,5.1,20.25,18.209s-10.781,18.215-20.25,18.215ZM247.707,15.617H265.19c8.45,0,16.608,5.1,16.608,15.3,0,10.053-8.013,15.154-16.608,15.154H247.707Zm34.676,34.674a23.511,23.511,0,0,0,12.673-21.27c0-13.258-10.638-25.35-29.14-25.35H235.467a1.161,1.161,0,0,0-1.313,1.313v99.36a1.161,1.161,0,0,0,1.313,1.313H266.5c20.978,0,32.49-13.113,32.49-29.578,0-12.528-6.411-21.559-16.608-25.786M376.7,29.168h-6.266a1.472,1.472,0,0,0-1.6,1.021l-2.62,6.7c-4.663-5.389-11.947-9.033-22-9.033-22.729,0-37,18.5-37,39.631,0,20.978,13.988,39.334,36.713,39.334a28.835,28.835,0,0,0,8.595-1.309,2.324,2.324,0,0,0,1.315-1.313l4.951-11.364c.438-1.018,0-1.6-1.168-1.018a29.368,29.368,0,0,1-11.8,2.331c-15.589,0-25.5-11.219-25.5-26.661s9.765-26.952,24.332-26.952c13.551,0,20.254,8.74,20.254,15.149v48.662a1.159,1.159,0,0,0,1.309,1.313H376.7a1.16,1.16,0,0,0,1.311-1.313V30.477a1.158,1.158,0,0,0-1.311-1.309m50.363-1.313c-10.491,0-18.5,4.517-23.311,11.947V30.477a1.159,1.159,0,0,0-1.315-1.309h-9.759a1.158,1.158,0,0,0-1.311,1.309v73.867a1.16,1.16,0,0,0,1.311,1.313h10.491a1.159,1.159,0,0,0,1.309-1.313V62.093c0-14.276,9.178-21.559,20.107-21.559,10.781,0,19.52,6.992,19.52,22v41.813a1.159,1.159,0,0,0,1.309,1.313h10.491a1.162,1.162,0,0,0,1.315-1.313V61.077c0-20.837-12.094-33.22-30.16-33.22m69.61,34.236,30.16-31.322c.873-.875.581-1.6-.581-1.6H513.14a2.119,2.119,0,0,0-1.747.728L483.273,59.909V5.007a1.16,1.16,0,0,0-1.311-1.313H471.471a1.158,1.158,0,0,0-1.309,1.313v99.337a1.158,1.158,0,0,0,1.309,1.313h10.491a1.16,1.16,0,0,0,1.311-1.313V65.154l30.594,39.776a2.1,2.1,0,0,0,1.6.728h12.677c1.164,0,1.454-.728.875-1.606l-32.347-41.96M563.361,27.71c-22,0-36.567,17.628-36.567,39.776,0,22.291,15.3,39.627,38.026,39.627,9.9,0,18.5-2.476,25.2-8.012a1.187,1.187,0,0,0,.288-1.748l-4.8-8.45c-.438-.732-1.021-.732-1.753-.293a31.132,31.132,0,0,1-18.064,5.683c-16.465,0-25.788-11.51-25.788-26.952s8.595-27.1,23.455-27.1c13.839,0,20.543,9.033,21.856,21.125H553.164a1.4,1.4,0,0,0-1.454,1.021l-3.642,8.6c-.438,1.02,0,1.6.873,1.6h47.643a1.272,1.272,0,0,0,1.309-1.166,35.017,35.017,0,0,0,.293-5.389c0-21.27-12.385-38.318-34.823-38.318m80.477.141c-10.491,0-18.5,4.517-23.311,11.947V30.477a1.159,1.159,0,0,0-1.315-1.309h-9.759a1.158,1.158,0,0,0-1.311,1.309v73.867a1.16,1.16,0,0,0,1.311,1.313h10.491a1.158,1.158,0,0,0,1.309-1.313V62.093c0-14.276,9.178-21.559,20.107-21.559,10.781,0,19.524,6.992,19.524,22v41.813a1.158,1.158,0,0,0,1.309,1.313h10.489A1.162,1.162,0,0,0,674,104.344V61.077c0-20.837-12.094-33.22-30.16-33.22" transform="translate(1106 2470.75)" fill="#ee2824"/>
  </g>
</svg>
