<svg xmlns="http://www.w3.org/2000/svg" width="90" height="90" viewBox="0 0 90 90">
  <g id="Transparent_minusknapp:_formulär" data-name="Transparent minusknapp: formulär" transform="translate(-172 -1489)">
    <line id="Line_62" data-name="Line 62" x2="46.632" transform="translate(193.5 1534.5)" fill="none" stroke="#ffb74d" stroke-linecap="round" stroke-width="5"/>
    <g id="Path_42" data-name="Path 42" transform="translate(172 1489)" fill="none">
      <path d="M45,0A45,45,0,1,1,0,45,45,45,0,0,1,45,0Z" stroke="none"/>
      <path d="M 45.00000381469727 1.000007629394531 C 39.05960464477539 1.000007629394531 33.29741668701172 2.163215637207031 27.87352752685547 4.457328796386719 C 22.6341552734375 6.67340087890625 17.92851257324219 9.846107482910156 13.88730621337891 13.88730621337891 C 9.846107482910156 17.92851257324219 6.67340087890625 22.6341552734375 4.457328796386719 27.87352752685547 C 2.163215637207031 33.29741668701172 1.000007629394531 39.05960464477539 1.000007629394531 45.00000381469727 C 1.000007629394531 50.94040298461914 2.163215637207031 56.70259094238281 4.457328796386719 62.12648010253906 C 6.67340087890625 67.36585235595703 9.846107482910156 72.07148742675781 13.88730621337891 76.11270141601562 C 17.92851257324219 80.15390014648438 22.6341552734375 83.32660675048828 27.87352752685547 85.54267883300781 C 33.29741668701172 87.8367919921875 39.05960464477539 89 45.00000381469727 89 C 50.94040298461914 89 56.70259094238281 87.8367919921875 62.12648010253906 85.54267883300781 C 67.36585235595703 83.32660675048828 72.07148742675781 80.15390014648438 76.11270141601562 76.11270141601562 C 80.15390014648438 72.07148742675781 83.32660675048828 67.36585235595703 85.54267883300781 62.12648010253906 C 87.8367919921875 56.70259094238281 89 50.94040298461914 89 45.00000381469727 C 89 39.05960464477539 87.8367919921875 33.29741668701172 85.54267883300781 27.87352752685547 C 83.32660675048828 22.6341552734375 80.15390014648438 17.92851257324219 76.11270141601562 13.88730621337891 C 72.07148742675781 9.846107482910156 67.36585235595703 6.67340087890625 62.12648010253906 4.457328796386719 C 56.70259094238281 2.163215637207031 50.94040298461914 1.000007629394531 45.00000381469727 1.000007629394531 M 45.00000381469727 7.62939453125e-06 C 69.85281372070312 7.62939453125e-06 90 20.14719390869141 90 45.00000381469727 C 90 69.85281372070312 69.85281372070312 90 45.00000381469727 90 C 20.14719390869141 90 7.62939453125e-06 69.85281372070312 7.62939453125e-06 45.00000381469727 C 7.62939453125e-06 20.14719390869141 20.14719390869141 7.62939453125e-06 45.00000381469727 7.62939453125e-06 Z" stroke="none" fill="#448aff"/>
    </g>
  </g>
</svg>
